<svg width="100" height="100" viewBox="0 0 100 100" fill="none" xmlns="http://www.w3.org/2000/svg">
<circle cx="50" cy="50" r="48.5" fill="#B47374" stroke="#3A4249" stroke-width="3"/>
<path d="M22.6562 34.6875H77.3438V77.3438C77.3438 78.5041 76.8828 79.6169 76.0623 80.4373C75.2419 81.2578 74.1291 81.7188 72.9688 81.7188H27.0312C25.8709 81.7188 24.7581 81.2578 23.9377 80.4373C23.1172 79.6169 22.6562 78.5041 22.6562 77.3438V34.6875Z" fill="#F2DAAE"/>
<ellipse cx="41.5417" cy="48.25" rx="2.625" ry="2.91667" fill="#3A4249"/>
<ellipse cx="57.2917" cy="48.25" rx="2.625" ry="2.91667" fill="#3A4249"/>
<path fill-rule="evenodd" clip-rule="evenodd" d="M49.5043 58.1666C51.8722 58.1666 53.7918 55.7395 53.7918 52.7456C53.7918 52.7086 53.7915 52.6717 53.7909 52.635H45.2177C45.2171 52.6717 45.2168 52.7086 45.2168 52.7456C45.2168 55.7395 47.1364 58.1666 49.5043 58.1666ZM49.4992 47.3246H49.5094C49.5077 47.3246 49.506 47.3246 49.5043 47.3246C49.5026 47.3246 49.5009 47.3246 49.4992 47.3246Z" fill="#3A4249"/>
<path d="M27.0312 28.125H72.9688C74.1291 28.125 75.2419 28.5859 76.0623 29.4064C76.8828 30.2269 77.3438 31.3397 77.3438 32.5V34.6875H22.6562V32.5C22.6562 31.3397 23.1172 30.2269 23.9377 29.4064C24.7581 28.5859 25.8709 28.125 27.0312 28.125V28.125Z" fill="#E0C494"/>
<path d="M21.0156 34.6875H22.6562V40.1562H21.0156C20.2904 40.1562 19.5949 39.8682 19.0821 39.3554C18.5693 38.8426 18.2812 38.1471 18.2812 37.4219V37.4219C18.2812 36.6967 18.5693 36.0012 19.0821 35.4884C19.5949 34.9756 20.2904 34.6875 21.0156 34.6875V34.6875Z" fill="#4F5559"/>
<path d="M77.3438 34.6875H78.9844C79.7096 34.6875 80.4051 34.9756 80.9179 35.4884C81.4307 36.0012 81.7188 36.6967 81.7188 37.4219V37.4219C81.7188 38.1471 81.4307 38.8426 80.9179 39.3554C80.4051 39.8682 79.7096 40.1562 78.9844 40.1562H77.3438V34.6875Z" fill="#4F5559"/>
<path d="M37.9688 28.125V22.6562C37.9688 21.4959 38.4297 20.3831 39.2502 19.5627C40.0706 18.7422 41.1834 18.2812 42.3438 18.2812H57.6562C58.8166 18.2812 59.9294 18.7422 60.7498 19.5627C61.5703 20.3831 62.0312 21.4959 62.0312 22.6562V28.125H57.6562V22.6562H42.3438V28.125H37.9688Z" fill="#4F5559"/>
<path d="M39.0625 76.25C39.0625 80.4784 36.6136 81.7188 33.5938 81.7188C30.5739 81.7188 28.125 80.4784 28.125 76.25C28.125 72.0216 33.5938 66.4062 33.5938 66.4062C33.5938 66.4062 39.0625 72.0216 39.0625 76.25Z" fill="#D36767"/>
<path d="M36.875 78.5939C36.875 81.01 35.4061 81.7188 33.5938 81.7188C31.7814 81.7188 30.3125 81.01 30.3125 78.5939C30.3125 76.1778 33.5938 72.9688 33.5938 72.9688C33.5938 72.9688 36.875 76.1778 36.875 78.5939Z" fill="#62C4C3"/>
<path d="M55.4688 76.25C55.4688 80.4784 53.0198 81.7188 50 81.7188C46.9802 81.7188 44.5312 80.4784 44.5312 76.25C44.5312 72.0216 50 66.4062 50 66.4062C50 66.4062 55.4688 72.0216 55.4688 76.25Z" fill="#D36767"/>
<path d="M53.2812 78.5939C53.2812 81.01 51.8123 81.7188 50 81.7188C48.1877 81.7188 46.7188 81.01 46.7188 78.5939C46.7188 76.1778 50 72.9688 50 72.9688C50 72.9688 53.2812 76.1778 53.2812 78.5939Z" fill="#62C4C3"/>
<path d="M71.875 76.25C71.875 80.4784 69.4261 81.7188 66.4062 81.7188C63.3864 81.7188 60.9375 80.4784 60.9375 76.25C60.9375 72.0216 66.4062 66.4062 66.4062 66.4062C66.4062 66.4062 71.875 72.0216 71.875 76.25Z" fill="#D36767"/>
<path d="M69.6875 78.5939C69.6875 81.01 68.2186 81.7188 66.4062 81.7188C64.5939 81.7188 63.125 81.01 63.125 78.5939C63.125 76.1778 66.4062 72.9688 66.4062 72.9688C66.4062 72.9688 69.6875 76.1778 69.6875 78.5939Z" fill="#62C4C3"/>
<path d="M78.9844 33.5938H78.4375V32.5C78.4358 31.0501 77.859 29.6601 76.8338 28.6349C75.8086 27.6097 74.4186 27.033 72.9688 27.0312H63.125V22.6562C63.1233 21.2064 62.5465 19.8164 61.5213 18.7912C60.4961 17.766 59.1061 17.1892 57.6562 17.1875H42.3438C40.8939 17.1892 39.5039 17.766 38.4787 18.7912C37.4535 19.8164 36.8767 21.2064 36.875 22.6562V27.0312H27.0312C25.5814 27.033 24.1914 27.6097 23.1662 28.6349C22.141 29.6601 21.5642 31.0501 21.5625 32.5V33.5938H21.0156C20.0003 33.5938 19.0266 33.9971 18.3087 34.715C17.5908 35.4329 17.1875 36.4066 17.1875 37.4219C17.1875 38.4372 17.5908 39.4109 18.3087 40.1288C19.0266 40.8467 20.0003 41.25 21.0156 41.25H21.5625V77.3438C21.5642 78.7936 22.141 80.1836 23.1662 81.2088C24.1914 82.234 25.5814 82.8108 27.0312 82.8125H72.9688C74.4186 82.8108 75.8086 82.234 76.8338 81.2088C77.859 80.1836 78.4358 78.7936 78.4375 77.3438V41.25H78.9844C79.9997 41.25 80.9734 40.8467 81.6913 40.1288C82.4092 39.4109 82.8125 38.4372 82.8125 37.4219C82.8125 36.4066 82.4092 35.4329 81.6913 34.715C80.9734 33.9971 79.9997 33.5938 78.9844 33.5938ZM39.0625 22.6562C39.0625 21.786 39.4082 20.9514 40.0236 20.3361C40.6389 19.7207 41.4735 19.375 42.3438 19.375H57.6562C58.5265 19.375 59.3611 19.7207 59.9764 20.3361C60.5918 20.9514 60.9375 21.786 60.9375 22.6562V27.0312H58.75V22.6562C58.75 22.3662 58.6348 22.088 58.4296 21.8829C58.2245 21.6777 57.9463 21.5625 57.6562 21.5625H42.3438C42.0537 21.5625 41.7755 21.6777 41.5704 21.8829C41.3652 22.088 41.25 22.3662 41.25 22.6562V27.0312H39.0625V22.6562ZM43.4375 27.0312V23.75H56.5625V27.0312H43.4375ZM23.75 32.5C23.75 31.6298 24.0957 30.7952 24.7111 30.1798C25.3264 29.5645 26.161 29.2188 27.0312 29.2188H72.9688C73.839 29.2188 74.6736 29.5645 75.2889 30.1798C75.9043 30.7952 76.25 31.6298 76.25 32.5V33.5938H23.75V32.5ZM21.0156 39.0625C20.5805 39.0625 20.1632 38.8896 19.8555 38.582C19.5479 38.2743 19.375 37.857 19.375 37.4219C19.375 36.9868 19.5479 36.5695 19.8555 36.2618C20.1632 35.9541 20.5805 35.7812 21.0156 35.7812H21.5625V39.0625H21.0156ZM29.2188 76.25C29.2188 73.6195 31.9061 69.9708 33.5938 68.0261C35.2825 69.9686 37.9688 73.6141 37.9688 76.25C37.9683 76.7025 37.9258 77.154 37.8419 77.5986C37.2469 75.083 34.6853 72.5061 34.3583 72.1867C34.1538 71.9863 33.8789 71.8741 33.5927 71.8741C33.3064 71.8741 33.0315 71.9863 32.827 72.1867C32.4989 72.5061 29.9384 75.0775 29.3434 77.5986C29.2602 77.1539 29.2185 76.7024 29.2188 76.25V76.25ZM32.9834 80.5878C31.8492 80.4489 31.4062 79.867 31.4062 78.5939C31.4062 77.4663 32.5492 75.7797 33.5938 74.5733C34.5344 75.667 35.7812 77.3864 35.7812 78.5939C35.7812 79.867 35.3383 80.4533 34.2041 80.5878C34.0028 80.602 33.8125 80.625 33.5938 80.625C33.375 80.625 33.1847 80.602 32.9834 80.5878ZM45.625 76.25C45.625 73.6195 48.3123 69.9708 50 68.0261C51.6888 69.9686 54.375 73.6141 54.375 76.25C54.3745 76.7025 54.332 77.154 54.2481 77.5986C53.6531 75.083 51.0916 72.5061 50.7645 72.1867C50.5601 71.9863 50.2852 71.8741 49.9989 71.8741C49.7126 71.8741 49.4377 71.9863 49.2333 72.1867C48.9052 72.5061 46.3447 75.0775 45.7497 77.5986C45.6665 77.1539 45.6248 76.7024 45.625 76.25V76.25ZM49.3897 80.5878C48.2555 80.4489 47.8125 79.867 47.8125 78.5939C47.8125 77.4663 48.9555 75.7797 50 74.5733C50.9406 75.667 52.1875 77.3864 52.1875 78.5939C52.1875 79.867 51.7445 80.4533 50.6103 80.5878C50.4091 80.602 50.2188 80.625 50 80.625C49.7812 80.625 49.5909 80.602 49.3897 80.5878ZM62.0312 76.25C62.0312 73.6195 64.7186 69.9708 66.4062 68.0261C68.095 69.9686 70.7812 73.6141 70.7812 76.25C70.7808 76.7025 70.7383 77.154 70.6544 77.5986C70.0594 75.083 67.4978 72.5061 67.1708 72.1867C66.9663 71.9863 66.6914 71.8741 66.4052 71.8741C66.1189 71.8741 65.844 71.9863 65.6395 72.1867C65.3114 72.5061 62.7509 75.0775 62.1559 77.5986C62.0727 77.1539 62.031 76.7024 62.0312 76.25V76.25ZM65.7959 80.5878C64.6617 80.4489 64.2188 79.867 64.2188 78.5939C64.2188 77.4663 65.3617 75.7797 66.4062 74.5733C67.3469 75.667 68.5938 77.3864 68.5938 78.5939C68.5938 79.867 68.1508 80.4533 67.0166 80.5878C66.8153 80.602 66.625 80.625 66.4062 80.625C66.1875 80.625 65.9972 80.602 65.7959 80.5878ZM76.25 77.3438C76.25 78.214 75.9043 79.0486 75.2889 79.6639C74.6736 80.2793 73.839 80.625 72.9688 80.625H71.6628C72.5783 79.3553 73.0384 77.8138 72.9688 76.25C72.9688 71.6289 67.4256 65.8845 67.1894 65.6406C66.9796 65.437 66.6987 65.3231 66.4062 65.3231C66.1138 65.3231 65.8329 65.437 65.6231 65.6406C65.3869 65.8845 59.8438 71.6289 59.8438 76.25C59.7741 77.8138 60.2342 79.3553 61.1497 80.625H55.2566C56.172 79.3553 56.6322 77.8138 56.5625 76.25C56.5625 71.6289 51.0194 65.8845 50.7831 65.6406C50.5733 65.437 50.2924 65.3231 50 65.3231C49.7076 65.3231 49.4267 65.437 49.2169 65.6406C48.9806 65.8845 43.4375 71.6289 43.4375 76.25C43.3678 77.8138 43.828 79.3553 44.7434 80.625H38.8503C39.7658 79.3553 40.2259 77.8138 40.1562 76.25C40.1562 71.6289 34.6131 65.8845 34.3769 65.6406C34.1671 65.437 33.8862 65.3231 33.5938 65.3231C33.3013 65.3231 33.0204 65.437 32.8106 65.6406C32.5744 65.8845 27.0312 71.6289 27.0312 76.25C26.9616 77.8138 27.4217 79.3553 28.3372 80.625H27.0312C26.161 80.625 25.3264 80.2793 24.7111 79.6639C24.0957 79.0486 23.75 78.214 23.75 77.3438V35.7812H76.25V77.3438ZM78.9844 39.0625H78.4375V35.7812H78.9844C79.4195 35.7812 79.8368 35.9541 80.1445 36.2618C80.4522 36.5695 80.625 36.9868 80.625 37.4219C80.625 37.857 80.4522 38.2743 80.1445 38.582C79.8368 38.8896 79.4195 39.0625 78.9844 39.0625Z" fill="#3A4249"/>
<path d="M74.0625 37.9688H71.875V40.1562H74.0625V37.9688Z" fill="#3A4249"/>
<path d="M69.6875 37.9688H67.5V40.1562H69.6875V37.9688Z" fill="#3A4249"/>
<path d="M65.3125 37.9688H63.125V40.1562H65.3125V37.9688Z" fill="#3A4249"/>
</svg>
