<svg width="104" height="100" viewBox="0 0 104 100" fill="none" xmlns="http://www.w3.org/2000/svg">
<circle cx="52" cy="50" r="48.5" fill="#B47374" stroke="#A6B401" stroke-width="3"/>
<path d="M24.6562 34.6875H79.3438V77.3438C79.3438 78.5041 78.8828 79.6169 78.0623 80.4373C77.2419 81.2578 76.1291 81.7188 74.9688 81.7188H29.0312C27.8709 81.7188 26.7581 81.2578 25.9377 80.4373C25.1172 79.6169 24.6562 78.5041 24.6562 77.3438V34.6875Z" fill="#F2DAAE"/>
<ellipse cx="43.5416" cy="48.2499" rx="2.625" ry="2.91667" fill="#3A4249"/>
<ellipse cx="59.2916" cy="48.2499" rx="2.625" ry="2.91667" fill="#3A4249"/>
<path fill-rule="evenodd" clip-rule="evenodd" d="M51.5042 58.1667C53.8721 58.1667 55.7917 55.7396 55.7917 52.7457C55.7917 52.7087 55.7914 52.6718 55.7908 52.6351H47.2175C47.217 52.6718 47.2167 52.7087 47.2167 52.7457C47.2167 55.7396 49.1363 58.1667 51.5042 58.1667ZM51.499 47.3247H51.5093C51.5076 47.3247 51.5059 47.3247 51.5042 47.3247C51.5025 47.3247 51.5007 47.3247 51.499 47.3247Z" fill="#3A4249"/>
<path d="M29.0312 28.125H74.9688C76.1291 28.125 77.2419 28.5859 78.0623 29.4064C78.8828 30.2269 79.3438 31.3397 79.3438 32.5V34.6875H24.6562V32.5C24.6562 31.3397 25.1172 30.2269 25.9377 29.4064C26.7581 28.5859 27.8709 28.125 29.0312 28.125Z" fill="#E0C494"/>
<path d="M23.0156 34.6875H24.6562V40.1562H23.0156C22.2904 40.1562 21.5949 39.8682 21.0821 39.3554C20.5693 38.8426 20.2812 38.1471 20.2812 37.4219C20.2812 36.6967 20.5693 36.0012 21.0821 35.4884C21.5949 34.9756 22.2904 34.6875 23.0156 34.6875Z" fill="#4F5559"/>
<path d="M79.3438 34.6875H80.9844C81.7096 34.6875 82.4051 34.9756 82.9179 35.4884C83.4307 36.0012 83.7188 36.6967 83.7188 37.4219C83.7188 38.1471 83.4307 38.8426 82.9179 39.3554C82.4051 39.8682 81.7096 40.1562 80.9844 40.1562H79.3438V34.6875Z" fill="#4F5559"/>
<path d="M39.9688 28.125V22.6562C39.9688 21.4959 40.4297 20.3831 41.2502 19.5627C42.0706 18.7422 43.1834 18.2812 44.3438 18.2812H59.6562C60.8166 18.2812 61.9294 18.7422 62.7498 19.5627C63.5703 20.3831 64.0312 21.4959 64.0312 22.6562V28.125H59.6562V22.6562H44.3438V28.125H39.9688Z" fill="#4F5559"/>
<path d="M41.0625 76.25C41.0625 80.4784 38.6136 81.7188 35.5938 81.7188C32.5739 81.7188 30.125 80.4784 30.125 76.25C30.125 72.0216 35.5938 66.4062 35.5938 66.4062C35.5938 66.4062 41.0625 72.0216 41.0625 76.25Z" fill="#D36767"/>
<path d="M38.875 78.5939C38.875 81.01 37.4061 81.7188 35.5938 81.7188C33.7814 81.7188 32.3125 81.01 32.3125 78.5939C32.3125 76.1778 35.5938 72.9688 35.5938 72.9688C35.5938 72.9688 38.875 76.1778 38.875 78.5939Z" fill="#62C4C3"/>
<path d="M57.4688 76.25C57.4688 80.4784 55.0198 81.7188 52 81.7188C48.9802 81.7188 46.5312 80.4784 46.5312 76.25C46.5312 72.0216 52 66.4062 52 66.4062C52 66.4062 57.4688 72.0216 57.4688 76.25Z" fill="#D36767"/>
<path d="M55.2812 78.5939C55.2812 81.01 53.8123 81.7188 52 81.7188C50.1877 81.7188 48.7188 81.01 48.7188 78.5939C48.7188 76.1778 52 72.9688 52 72.9688C52 72.9688 55.2812 76.1778 55.2812 78.5939Z" fill="#62C4C3"/>
<path d="M73.875 76.25C73.875 80.4784 71.4261 81.7188 68.4062 81.7188C65.3864 81.7188 62.9375 80.4784 62.9375 76.25C62.9375 72.0216 68.4062 66.4062 68.4062 66.4062C68.4062 66.4062 73.875 72.0216 73.875 76.25Z" fill="#D36767"/>
<path d="M71.6875 78.5939C71.6875 81.01 70.2186 81.7188 68.4062 81.7188C66.5939 81.7188 65.125 81.01 65.125 78.5939C65.125 76.1778 68.4062 72.9688 68.4062 72.9688C68.4062 72.9688 71.6875 76.1778 71.6875 78.5939Z" fill="#62C4C3"/>
<path d="M80.9844 33.5938H80.4375V32.5C80.4358 31.0501 79.859 29.6601 78.8338 28.6349C77.8086 27.6097 76.4186 27.033 74.9688 27.0312H65.125V22.6562C65.1233 21.2064 64.5465 19.8164 63.5213 18.7912C62.4961 17.766 61.1061 17.1892 59.6562 17.1875H44.3438C42.8939 17.1892 41.5039 17.766 40.4787 18.7912C39.4535 19.8164 38.8767 21.2064 38.875 22.6562V27.0312H29.0312C27.5814 27.033 26.1914 27.6097 25.1662 28.6349C24.141 29.6601 23.5642 31.0501 23.5625 32.5V33.5938H23.0156C22.0003 33.5938 21.0266 33.9971 20.3087 34.715C19.5908 35.4329 19.1875 36.4066 19.1875 37.4219C19.1875 38.4372 19.5908 39.4109 20.3087 40.1288C21.0266 40.8467 22.0003 41.25 23.0156 41.25H23.5625V77.3438C23.5642 78.7936 24.141 80.1836 25.1662 81.2088C26.1914 82.234 27.5814 82.8108 29.0312 82.8125H74.9688C76.4186 82.8108 77.8086 82.234 78.8338 81.2088C79.859 80.1836 80.4358 78.7936 80.4375 77.3438V41.25H80.9844C81.9997 41.25 82.9734 40.8467 83.6913 40.1288C84.4092 39.4109 84.8125 38.4372 84.8125 37.4219C84.8125 36.4066 84.4092 35.4329 83.6913 34.715C82.9734 33.9971 81.9997 33.5938 80.9844 33.5938ZM41.0625 22.6562C41.0625 21.786 41.4082 20.9514 42.0236 20.3361C42.6389 19.7207 43.4735 19.375 44.3438 19.375H59.6562C60.5265 19.375 61.3611 19.7207 61.9764 20.3361C62.5918 20.9514 62.9375 21.786 62.9375 22.6562V27.0312H60.75V22.6562C60.75 22.3662 60.6348 22.088 60.4296 21.8829C60.2245 21.6777 59.9463 21.5625 59.6562 21.5625H44.3438C44.0537 21.5625 43.7755 21.6777 43.5704 21.8829C43.3652 22.088 43.25 22.3662 43.25 22.6562V27.0312H41.0625V22.6562ZM45.4375 27.0312V23.75H58.5625V27.0312H45.4375ZM25.75 32.5C25.75 31.6298 26.0957 30.7952 26.7111 30.1798C27.3264 29.5645 28.161 29.2188 29.0312 29.2188H74.9688C75.839 29.2188 76.6736 29.5645 77.2889 30.1798C77.9043 30.7952 78.25 31.6298 78.25 32.5V33.5938H25.75V32.5ZM23.0156 39.0625C22.5805 39.0625 22.1632 38.8896 21.8555 38.582C21.5479 38.2743 21.375 37.857 21.375 37.4219C21.375 36.9868 21.5479 36.5695 21.8555 36.2618C22.1632 35.9541 22.5805 35.7812 23.0156 35.7812H23.5625V39.0625H23.0156ZM31.2188 76.25C31.2188 73.6195 33.9061 69.9708 35.5938 68.0261C37.2825 69.9686 39.9688 73.6141 39.9688 76.25C39.9683 76.7025 39.9258 77.154 39.8419 77.5986C39.2469 75.083 36.6853 72.5061 36.3583 72.1867C36.1538 71.9863 35.8789 71.8741 35.5927 71.8741C35.3064 71.8741 35.0315 71.9863 34.827 72.1867C34.4989 72.5061 31.9384 75.0775 31.3434 77.5986C31.2602 77.1539 31.2185 76.7024 31.2188 76.25ZM34.9834 80.5878C33.8492 80.4489 33.4062 79.867 33.4062 78.5939C33.4062 77.4663 34.5492 75.7797 35.5938 74.5733C36.5344 75.667 37.7812 77.3864 37.7812 78.5939C37.7812 79.867 37.3383 80.4533 36.2041 80.5878C36.0028 80.602 35.8125 80.625 35.5938 80.625C35.375 80.625 35.1847 80.602 34.9834 80.5878ZM47.625 76.25C47.625 73.6195 50.3123 69.9708 52 68.0261C53.6888 69.9686 56.375 73.6141 56.375 76.25C56.3745 76.7025 56.332 77.154 56.2481 77.5986C55.6531 75.083 53.0916 72.5061 52.7645 72.1867C52.5601 71.9863 52.2852 71.8741 51.9989 71.8741C51.7126 71.8741 51.4377 71.9863 51.2333 72.1867C50.9052 72.5061 48.3447 75.0775 47.7497 77.5986C47.6665 77.1539 47.6248 76.7024 47.625 76.25ZM51.3897 80.5878C50.2555 80.4489 49.8125 79.867 49.8125 78.5939C49.8125 77.4663 50.9555 75.7797 52 74.5733C52.9406 75.667 54.1875 77.3864 54.1875 78.5939C54.1875 79.867 53.7445 80.4533 52.6103 80.5878C52.4091 80.602 52.2188 80.625 52 80.625C51.7812 80.625 51.5909 80.602 51.3897 80.5878ZM64.0312 76.25C64.0312 73.6195 66.7186 69.9708 68.4062 68.0261C70.095 69.9686 72.7812 73.6141 72.7812 76.25C72.7808 76.7025 72.7383 77.154 72.6544 77.5986C72.0594 75.083 69.4978 72.5061 69.1708 72.1867C68.9663 71.9863 68.6914 71.8741 68.4052 71.8741C68.1189 71.8741 67.844 71.9863 67.6395 72.1867C67.3114 72.5061 64.7509 75.0775 64.1559 77.5986C64.0727 77.1539 64.031 76.7024 64.0312 76.25ZM67.7959 80.5878C66.6617 80.4489 66.2188 79.867 66.2188 78.5939C66.2188 77.4663 67.3617 75.7797 68.4062 74.5733C69.3469 75.667 70.5938 77.3864 70.5938 78.5939C70.5938 79.867 70.1508 80.4533 69.0166 80.5878C68.8153 80.602 68.625 80.625 68.4062 80.625C68.1875 80.625 67.9972 80.602 67.7959 80.5878ZM78.25 77.3438C78.25 78.214 77.9043 79.0486 77.2889 79.6639C76.6736 80.2793 75.839 80.625 74.9688 80.625H73.6628C74.5783 79.3553 75.0384 77.8138 74.9688 76.25C74.9688 71.6289 69.4256 65.8845 69.1894 65.6406C68.9796 65.437 68.6987 65.3231 68.4062 65.3231C68.1138 65.3231 67.8329 65.437 67.6231 65.6406C67.3869 65.8845 61.8438 71.6289 61.8438 76.25C61.7741 77.8138 62.2342 79.3553 63.1497 80.625H57.2566C58.172 79.3553 58.6322 77.8138 58.5625 76.25C58.5625 71.6289 53.0194 65.8845 52.7831 65.6406C52.5733 65.437 52.2924 65.3231 52 65.3231C51.7076 65.3231 51.4267 65.437 51.2169 65.6406C50.9806 65.8845 45.4375 71.6289 45.4375 76.25C45.3678 77.8138 45.828 79.3553 46.7434 80.625H40.8503C41.7658 79.3553 42.2259 77.8138 42.1562 76.25C42.1562 71.6289 36.6131 65.8845 36.3769 65.6406C36.1671 65.437 35.8862 65.3231 35.5938 65.3231C35.3013 65.3231 35.0204 65.437 34.8106 65.6406C34.5744 65.8845 29.0312 71.6289 29.0312 76.25C28.9616 77.8138 29.4217 79.3553 30.3372 80.625H29.0312C28.161 80.625 27.3264 80.2793 26.7111 79.6639C26.0957 79.0486 25.75 78.214 25.75 77.3438V35.7812H78.25V77.3438ZM80.9844 39.0625H80.4375V35.7812H80.9844C81.4195 35.7812 81.8368 35.9541 82.1445 36.2618C82.4521 36.5695 82.625 36.9868 82.625 37.4219C82.625 37.857 82.4521 38.2743 82.1445 38.582C81.8368 38.8896 81.4195 39.0625 80.9844 39.0625Z" fill="#3A4249"/>
<path d="M76.0625 37.9688H73.875V40.1562H76.0625V37.9688Z" fill="#3A4249"/>
<path d="M71.6875 37.9688H69.5V40.1562H71.6875V37.9688Z" fill="#3A4249"/>
<path d="M67.3125 37.9688H65.125V40.1562H67.3125V37.9688Z" fill="#3A4249"/>
</svg>
